<svg viewBox="0 0 800 500" preserveAspectRatio="none" xmlns="http://www.w3.org/2000/svg" xmlns:xlink="http://www.w3.org/1999/xlink" width="100%" id="blobSvg">
  <g transform="translate(304, -51)">
    <path class="blob" d="M426,279Q430,308,436.5,349Q443,390,377,362Q311,334,311,386Q311,438,280.5,464.5Q250,491,223,454Q196,417,169,408Q142,399,154.5,354.5Q167,310,137.5,303Q108,296,141.5,273Q175,250,155,231.5Q135,213,93.5,159.5Q52,106,103,111.5Q154,117,163.5,65Q173,13,211.5,82.5Q250,152,278.5,112.5Q307,73,317,109Q327,145,383.5,128.5Q440,112,459.5,143.5Q479,175,450.5,212.5Q422,250,426,279Z" fill="#a29bfe"></path>
  </g>
</svg>